<svg width="19" height="20" viewBox="0 0 19 20" fill="none" xmlns="http://www.w3.org/2000/svg">
<g clip-path="url(#clip0_2_453)">
<circle cx="9.18484" cy="10.9245" r="3.67263" fill="#FCAF17"/>
<path d="M15.6955 4.84154H13.2313L12.9444 3.98077C12.8061 3.56281 12.5395 3.19915 12.1825 2.94156C11.8255 2.68397 11.3963 2.5456 10.956 2.54614H7.4108C6.97068 2.54581 6.54166 2.68427 6.18478 2.94184C5.82789 3.1994 5.56132 3.56295 5.42299 3.98077L5.13549 4.84154H2.67138C2.11575 4.84215 1.58306 5.06314 1.19017 5.45603C0.797282 5.84891 0.576291 6.38161 0.575684 6.93724V15.3728C0.576898 15.928 0.798157 16.4602 1.19098 16.8525C1.5838 17.2449 2.11615 17.4656 2.67138 17.4662H15.6978C16.253 17.465 16.7851 17.2437 17.1775 16.8509C17.5699 16.4581 17.7905 15.9258 17.7912 15.3705V6.93494C17.7899 6.37971 17.5687 5.84761 17.1759 5.45521C16.783 5.06282 16.2507 4.84215 15.6955 4.84154ZM16.6435 15.3705C16.6432 15.6219 16.5432 15.8628 16.3655 16.0405C16.1877 16.2182 15.9468 16.3182 15.6955 16.3185H2.67138C2.42005 16.3182 2.1791 16.2182 2.00138 16.0405C1.82366 15.8628 1.72369 15.6219 1.72338 15.3705V6.93494C1.72429 6.68401 1.82453 6.44365 2.00219 6.26642C2.17984 6.0892 2.42045 5.98954 2.67138 5.98924H5.54923C5.66962 5.98915 5.78693 5.95119 5.88456 5.88075C5.98219 5.81031 6.0552 5.71095 6.09324 5.59673L6.51158 4.34172C6.5744 4.15295 6.69508 3.98876 6.85649 3.87247C7.01791 3.75617 7.21185 3.69367 7.4108 3.69384H10.956C11.1551 3.69362 11.3491 3.75617 11.5106 3.87259C11.672 3.98901 11.7926 4.15337 11.8553 4.34229L12.2736 5.59673C12.3116 5.71095 12.3846 5.81031 12.4823 5.88075C12.5799 5.95119 12.6972 5.98915 12.8176 5.98924H15.6955C15.9468 5.98954 16.1877 6.08952 16.3655 6.26724C16.5432 6.44495 16.6432 6.68591 16.6435 6.93724V15.3705Z" fill="#333333"/>
<path d="M9.18375 6.56372C8.33253 6.56372 7.50042 6.81614 6.79265 7.28905C6.08488 7.76197 5.53325 8.43414 5.2075 9.22057C4.88175 10.007 4.79652 10.8724 4.96258 11.7072C5.12865 12.5421 5.53855 13.309 6.14046 13.9109C6.74236 14.5128 7.50924 14.9227 8.34411 15.0888C9.17898 15.2548 10.0443 15.1696 10.8308 14.8438C11.6172 14.5181 12.2894 13.9665 12.7623 13.2587C13.2352 12.5509 13.4876 11.7188 13.4876 10.8676C13.4864 9.7265 13.0326 8.6325 12.2257 7.82564C11.4188 7.01877 10.3248 6.56494 9.18375 6.56372ZM9.18375 14.0238C8.55952 14.0238 7.94931 13.8387 7.43028 13.4918C6.91125 13.145 6.50672 12.6521 6.26783 12.0754C6.02895 11.4987 5.96645 10.8641 6.08823 10.2519C6.21001 9.63961 6.5106 9.07724 6.952 8.63584C7.3934 8.19444 7.95578 7.89385 8.56801 7.77206C9.18025 7.65028 9.81485 7.71279 10.3916 7.95167C10.9683 8.19055 11.4612 8.59508 11.808 9.11411C12.1548 9.63314 12.3399 10.2434 12.3399 10.8676C12.339 11.7044 12.0062 12.5066 11.4145 13.0983C10.8228 13.69 10.0205 14.0228 9.18375 14.0238Z" fill="#333333"/>
<path d="M14.9208 8.28417C15.2377 8.28417 15.4946 8.02725 15.4946 7.71032C15.4946 7.3934 15.2377 7.13647 14.9208 7.13647C14.6038 7.13647 14.3469 7.3934 14.3469 7.71032C14.3469 8.02725 14.6038 8.28417 14.9208 8.28417Z" fill="black"/>
</g>
<defs>
<clipPath id="clip0_2_453">
<rect width="18.3632" height="18.3632" fill="white" transform="translate(0.00146484 0.825073)"/>
</clipPath>
</defs>
</svg>
