<svg width="19" height="20" viewBox="0 0 19 20" fill="none" xmlns="http://www.w3.org/2000/svg">
<g clip-path="url(#clip0_2_468)">
<path d="M17.4473 10.1001C17.4473 14.6639 13.7476 18.3635 9.18384 18.3635C4.62007 18.3635 0.92041 14.6639 0.92041 10.1001C0.92041 5.53633 4.62007 1.83667 9.18384 1.83667C13.7476 1.83667 17.4473 5.53633 17.4473 10.1001Z" fill="#FCAF17"/>
<path d="M9.18451 0.918579C4.12179 0.918579 0.00292969 5.03744 0.00292969 10.1002C0.00292969 15.1629 4.12179 19.2817 9.18451 19.2817C14.2472 19.2817 18.3661 15.1629 18.3661 10.1002C18.3661 5.03744 14.2473 0.918579 9.18451 0.918579ZM9.18451 18.2891C6.93524 18.2891 4.89498 17.3774 3.41356 15.9044C2.82196 15.3161 2.31976 14.6382 1.92873 13.8931C1.33316 12.7585 0.995547 11.4681 0.995547 10.1002C0.995547 5.58475 4.6691 1.9112 9.18451 1.9112C11.3263 1.9112 13.2783 2.73805 14.739 4.08887C15.4964 4.78917 16.1218 5.63016 16.5727 6.57017C17.0858 7.63965 17.3735 8.83693 17.3735 10.1002C17.3735 14.6156 13.6999 18.2891 9.18451 18.2891Z" fill="#333333"/>
<path d="M6.18671 9.04554C6.73492 9.04554 7.17933 8.60113 7.17933 8.05292C7.17933 7.50471 6.73492 7.0603 6.18671 7.0603C5.6385 7.0603 5.19409 7.50471 5.19409 8.05292C5.19409 8.60113 5.6385 9.04554 6.18671 9.04554Z" fill="#333333"/>
<path d="M12.3283 9.04554C12.8765 9.04554 13.3209 8.60113 13.3209 8.05292C13.3209 7.50471 12.8765 7.0603 12.3283 7.0603C11.7801 7.0603 11.3357 7.50471 11.3357 8.05292C11.3357 8.60113 11.7801 9.04554 12.3283 9.04554Z" fill="#333333"/>
<path d="M9.16971 15.1859C11.09 15.1859 12.9304 14.2038 13.9841 12.5733L13.1504 12.0345C12.1828 13.5318 10.4129 14.3674 8.64064 14.163C7.25954 14.0037 5.98235 13.208 5.22405 12.0345L4.39038 12.5733C5.30793 13.9933 6.8543 14.9561 8.52686 15.1491C8.74158 15.1738 8.95598 15.1859 9.16971 15.1859Z" fill="#333333"/>
</g>
<defs>
<clipPath id="clip0_2_468">
<rect width="18.3632" height="18.3632" fill="white" transform="translate(0 0.918823)"/>
</clipPath>
</defs>
</svg>
