<svg width="19" height="20" viewBox="0 0 19 20" fill="none" xmlns="http://www.w3.org/2000/svg">
<circle cx="4.59115" cy="12.6687" r="2.75448" fill="#FCAF17"/>
<circle cx="13.776" cy="12.6687" r="2.75448" fill="#FCAF17"/>
<path d="M15.1276 4.94966C14.9517 4.26869 14.3434 3.79431 13.6433 3.79431H13.3908C12.5453 3.79431 11.8605 4.4791 11.8605 5.32458C11.8605 5.53499 12.0327 5.70714 12.2431 5.70714C12.4535 5.70714 12.6257 5.53499 12.6257 5.32458C12.6257 4.90375 12.97 4.55944 13.3908 4.55944H13.6433C13.9914 4.55944 14.2975 4.79663 14.3893 5.1486L15.6747 9.72408C15.1276 9.36065 14.4773 9.15024 13.7734 9.15024C12.0059 9.15024 10.5445 10.493 10.3532 12.2108H8.01192C7.82063 10.493 6.35923 9.15024 4.59178 9.15024C3.88785 9.15024 3.23749 9.36447 2.69042 9.72408L3.97967 5.14094C4.06766 4.80046 4.37371 4.55944 4.72185 4.55944H4.97434C5.39516 4.55944 5.73947 4.90375 5.73947 5.32458C5.73947 5.53499 5.91163 5.70714 6.12204 5.70714C6.33245 5.70714 6.50461 5.53499 6.50461 5.32458C6.50461 4.4791 5.81981 3.79431 4.97434 3.79431H4.72185C4.02175 3.79431 3.41347 4.26869 3.24132 4.94201L1.53125 11.021C1.29023 11.4954 1.14868 12.0271 1.14868 12.5933C1.14868 14.4909 2.69425 16.0364 4.59178 16.0364C6.35923 16.0364 7.82063 14.6936 8.01192 12.9759H10.3532C10.5445 14.6936 12.0059 16.0364 13.7734 16.0364C15.6709 16.0364 17.2165 14.4909 17.2165 12.5933C17.2165 12.0271 17.0749 11.4954 16.8339 11.021L15.1276 4.94966ZM4.59178 15.2713C3.11507 15.2713 1.91381 14.07 1.91381 12.5933C1.91381 11.1166 3.11507 9.91537 4.59178 9.91537C6.06848 9.91537 7.26974 11.1166 7.26974 12.5933C7.26974 14.07 6.06848 15.2713 4.59178 15.2713ZM13.7734 15.2713C12.2967 15.2713 11.0954 14.07 11.0954 12.5933C11.0954 11.1166 12.2967 9.91537 13.7734 9.91537C15.2501 9.91537 16.4513 11.1166 16.4513 12.5933C16.4513 14.07 15.2501 15.2713 13.7734 15.2713Z" fill="#333333"/>
</svg>
